<?xml version="1.0" encoding="utf-8"?>
<!-- Generator: Adobe Illustrator 24.2.1, SVG Export Plug-In . SVG Version: 6.00 Build 0)  -->
<svg version="1.1" id="Layer_1" xmlns="http://www.w3.org/2000/svg" xmlns:xlink="http://www.w3.org/1999/xlink" x="0px"
	y="0px" viewBox="0 0 841.9 595.3" style="enable-background:new 0 0 841.9 595.3;" xml:space="preserve">
	<style type="text/css">
		.st0 {
			fill: #00C3AF;
		}

		.st1 {
			fill: #FFFFFF;
		}
	</style>
	<g>
		<g>
			<polygon class="st0" points="279.2,379.8 205.4,347.7 253.1,347.7 		" />
			<polygon class="st0" points="233.3,315.1 285.6,379.2 264.8,281.4 		" />
			<polygon class="st0" points="164.4,246.8 229.5,311.3 261,277.7 		" />
			<polygon class="st0" points="289.8,247.5 265.4,273.6 241.8,266.1 		" />
			<polygon class="st0" points="295,249.8 281.1,263.8 318.8,264.5 		" />
		</g>
		<g>
			<g>
				<path class="st1" d="M372.1,291.1h15v60.2h-15V291.1z" />
			</g>
			<g>
				<path class="st1" d="M459.7,291.1v51.7c0,27.1-12.8,38.8-33,38.8c-12.1,0-22.7-6.7-27.8-17.7l12.1-5.7c2.9,5.9,9.3,9.8,15.7,9.8
				c11.3,0,18.4-6.7,18.4-23.8v-0.9c-4.2,6.2-12.3,9.3-19.5,9.3c-15.5,0-28.9-12.2-28.9-31.5c0-19.3,13.3-31.3,28.8-31.3
				c7.6,0,15.5,3,19.6,9.2v-7.9H459.7z M444.8,321c0-10.6-8.6-17.3-17-17.3c-9.1,0-16.5,7.2-16.5,17.3s7.4,17.5,16.5,17.5
				C436.8,338.5,444.8,331.6,444.8,321z" />
			</g>
			<g>
				<path class="st1" d="M567.5,317.5v33.8h-14.8v-32.6c0-9.7-5-14.4-12-14.4c-8.6,0-14.1,6.4-13.4,17.3l-0.1-0.5v30.3h-15v-32.6
				c0-9.7-5-14.4-11.5-14.4c-7,0-13.9,3.9-13.9,15.3v31.7h-15v-60.2h15v10.3c2.2-7.6,10.4-11.6,17.9-11.6c8.8,0,16,4.1,19.5,11.9
				c4.8-9.5,14.2-11.9,20.2-11.9C559.5,289.8,567.5,300,567.5,317.5z" />
			</g>
			<g>
				<path class="st1"
					d="M312.1,332.6H327c0,4.1,3.8,8,10.5,8c6.3,0,10.4-2.7,10.4-6.6c0-3.4-2.7-4.9-7.5-5.9l-8.5-2.1
				c-14.3-3.6-18-10.8-18-18.4c0-9.4,9.8-17.7,23.7-17.7c11.3,0,24.1,5.3,24,18.8h-15.1c0-4.3-4-6.8-8.5-6.8c-4.9,0-8.3,2.6-8.3,6.3
				c0,3.1,3.1,4.9,6.8,5.7l10.2,2.6c14.3,3.5,16.9,12,16.9,17.5c0,12.2-13,18.7-25.9,18.7C325.1,352.7,312.4,345.5,312.1,332.6z" />
			</g>
			<g>
				<ellipse class="st1" cx="379.6" cy="276.5" rx="9" ry="9.3" />
			</g>
			<g>
				<path class="st1" d="M632.6,315.3v36h-14.7v-8c-4,5.5-12.6,9.3-20.6,9.3c-12.5,0-21.5-7.3-21.5-18.7c0-12.1,10.4-18.8,23.7-18.8
				c6.8,0,13.7,1.7,18.4,4.3v-3.6c0-7.6-5.2-12.9-13.6-12.9c-7.2,0-14,2.7-17.1,6.4l-8.1-8.5c4.9-6.6,15.1-11,26.1-11
				C621.1,289.8,632.6,298.8,632.6,315.3z M617.9,331.8v-2.4c-3.9-2.4-10.1-4-15.8-4c-8.2,0-12.3,3.6-12.3,7.9
				c0,4.3,3.9,7.1,10.3,7.1C606.6,340.4,614.3,337.1,617.9,331.8z" />
			</g>
		</g>
	</g>
</svg>