<?xml version="1.0" encoding="utf-8"?>
<!-- Generator: Adobe Illustrator 24.2.1, SVG Export Plug-In . SVG Version: 6.00 Build 0)  -->
<svg version="1.1" id="Layer_1" xmlns="http://www.w3.org/2000/svg" xmlns:xlink="http://www.w3.org/1999/xlink" x="0px"
	y="0px" viewBox="0 0 841.9 595.3" style="enable-background:new 0 0 841.9 595.3;" xml:space="preserve">
	<style type="text/css">
		.st0 {
			fill: #00C3AF;
		}
	</style>
	<g>
		<g>
			<polygon class="st0" points="255.8,388.4 153.6,344 219.7,344 		" />
			<polygon class="st0" points="192.3,298.8 264.6,387.6 235.9,252.2 		" />
			<polygon class="st0" points="96.9,204.4 187,293.7 230.6,247.1 		" />
			<polygon class="st0" points="270.4,205.3 236.6,241.4 204.1,231 		" />
			<polygon class="st0" points="277.6,208.4 258.5,227.8 310.6,228.8 		" />
		</g>
		<g>
			<g>
				<path d="M384.4,265.7h20.7V349h-20.7V265.7z" />
			</g>
			<g>
				<path d="M505.6,265.7v71.6c0,37.5-17.8,53.7-45.6,53.7c-16.7,0-31.4-9.3-38.5-24.4l16.7-7.9c4,8.2,12.9,13.6,21.8,13.6
				c15.7,0,25.4-9.3,25.4-33v-1.2c-5.7,8.6-17.1,12.8-27,12.8c-21.4,0-40.1-17-40.1-43.5c0-26.8,18.5-43.4,39.9-43.4
				c10.5,0,21.4,4.1,27.2,12.7v-10.9H505.6z M485,307c0-14.6-11.8-23.9-23.5-23.9c-12.5,0-22.8,10-22.8,23.9s10.3,24.3,22.8,24.3
				C473.9,331.3,485,321.7,485,307z" />
			</g>
			<g>
				<path d="M654.8,302.2V349h-20.5v-45.1c0-13.4-7-20-16.6-20c-12,0-19.4,8.9-18.6,23.9L599,307V349h-20.7v-45.1
				c0-13.4-7-20-15.9-20c-9.6,0-19.3,5.4-19.3,21.2V349h-20.7v-83.3h20.7v14.3c3-10.5,14.5-16.1,24.8-16.1
				c12.1,0,22.1,5.7,26.9,16.4c6.6-13.2,19.6-16.4,28-16.4C643.8,263.9,654.8,278,654.8,302.2z" />
			</g>
			<g>
				<path d="M301.4,323.1h20.6c0,5.7,5.3,11.1,14.5,11.1c8.7,0,14.3-3.7,14.3-9.1c0-4.6-3.8-6.8-10.4-8.2l-11.7-2.9
				c-19.8-5-24.9-15-24.9-25.5c0-13,13.6-24.4,32.8-24.4c15.7,0,33.4,7.3,33.2,26.1h-20.9c0-5.9-5.5-9.5-11.7-9.5
				c-6.8,0-11.5,3.6-11.5,8.7c0,4.3,4.3,6.8,9.4,7.9l14.2,3.6c19.8,4.8,23.4,16.6,23.4,24.3c0,17-17.9,25.9-35.9,25.9
				C319.3,351,301.7,341,301.4,323.1z" />
			</g>
			<g>
				<ellipse cx="394.7" cy="245.4" rx="12.4" ry="12.9" />
			</g>
			<g>
				<path d="M744.9,299.2V349h-20.4v-11.1c-5.6,7.7-17.5,12.8-28.5,12.8c-17.3,0-29.7-10.2-29.7-25.9c0-16.8,14.4-26.1,32.8-26.1
				c9.3,0,19,2.3,25.5,5.9v-5c0-10.5-7.1-17.8-18.9-17.8c-10,0-19.4,3.7-23.6,8.9L670.9,279c6.8-9.1,20.9-15.2,36.2-15.2
				C729,263.9,744.9,276.4,744.9,299.2z M724.6,322v-3.4c-5.4-3.4-13.9-5.5-21.9-5.5c-11.4,0-17,5-17,10.9c0,5.9,5.4,9.8,14.3,9.8
				C708.9,333.8,719.6,329.3,724.6,322z" />
			</g>
		</g>
	</g>
</svg>